<mxfile host="Electron" modified="2024-02-07T20:02:17.097Z" agent="Mozilla/5.0 (Windows NT 10.0; Win64; x64) AppleWebKit/537.36 (KHTML, like Gecko) draw.io/22.1.2 Chrome/114.0.5735.289 Electron/25.9.4 Safari/537.36" etag="m65Hw4rlhXxhges9_Shl" version="22.1.2" type="device">
  <diagram name="Page-1" id="jllLWMD4ucbZVKjwGShr">
    <mxGraphModel dx="2044" dy="1167" grid="1" gridSize="10" guides="1" tooltips="1" connect="1" arrows="1" fold="1" page="1" pageScale="1" pageWidth="850" pageHeight="1100" math="0" shadow="0">
      <root>
        <mxCell id="0" />
        <mxCell id="1" parent="0" />
        <mxCell id="1dfUMYbcFIkg1IFHl4_v-23" value="" style="rounded=1;whiteSpace=wrap;html=1;" parent="1" vertex="1">
          <mxGeometry x="80" y="190" width="460" height="530" as="geometry" />
        </mxCell>
        <mxCell id="1dfUMYbcFIkg1IFHl4_v-13" value="" style="rounded=1;whiteSpace=wrap;html=1;" parent="1" vertex="1">
          <mxGeometry x="130" y="550" width="350" height="130" as="geometry" />
        </mxCell>
        <mxCell id="1dfUMYbcFIkg1IFHl4_v-6" value="" style="rounded=0;whiteSpace=wrap;html=1;" parent="1" vertex="1">
          <mxGeometry x="90" y="260" width="170" height="270" as="geometry" />
        </mxCell>
        <mxCell id="1dfUMYbcFIkg1IFHl4_v-1" value="文件存储" style="shape=cube;whiteSpace=wrap;html=1;boundedLbl=1;backgroundOutline=1;darkOpacity=0.05;darkOpacity2=0.1;" parent="1" vertex="1">
          <mxGeometry x="170" y="565" width="120" height="80" as="geometry" />
        </mxCell>
        <mxCell id="1dfUMYbcFIkg1IFHl4_v-2" value="数据库" style="shape=cylinder3;whiteSpace=wrap;html=1;boundedLbl=1;backgroundOutline=1;size=15;" parent="1" vertex="1">
          <mxGeometry x="320" y="560" width="120" height="90" as="geometry" />
        </mxCell>
        <mxCell id="1dfUMYbcFIkg1IFHl4_v-3" value="物理机" style="shape=process;whiteSpace=wrap;html=1;backgroundOutline=1;" parent="1" vertex="1">
          <mxGeometry x="110" y="380" width="120" height="60" as="geometry" />
        </mxCell>
        <mxCell id="1dfUMYbcFIkg1IFHl4_v-4" value="物理机" style="shape=process;whiteSpace=wrap;html=1;backgroundOutline=1;" parent="1" vertex="1">
          <mxGeometry x="110" y="460" width="120" height="60" as="geometry" />
        </mxCell>
        <mxCell id="1dfUMYbcFIkg1IFHl4_v-5" value="物理机" style="shape=process;whiteSpace=wrap;html=1;backgroundOutline=1;" parent="1" vertex="1">
          <mxGeometry x="110" y="310" width="120" height="60" as="geometry" />
        </mxCell>
        <mxCell id="1dfUMYbcFIkg1IFHl4_v-7" value="分区一" style="text;html=1;strokeColor=none;fillColor=none;align=center;verticalAlign=middle;whiteSpace=wrap;rounded=0;" parent="1" vertex="1">
          <mxGeometry x="145" y="270" width="60" height="30" as="geometry" />
        </mxCell>
        <mxCell id="1dfUMYbcFIkg1IFHl4_v-8" value="" style="rounded=0;whiteSpace=wrap;html=1;" parent="1" vertex="1">
          <mxGeometry x="330" y="260" width="170" height="270" as="geometry" />
        </mxCell>
        <mxCell id="1dfUMYbcFIkg1IFHl4_v-9" value="物理机" style="shape=process;whiteSpace=wrap;html=1;backgroundOutline=1;" parent="1" vertex="1">
          <mxGeometry x="350" y="380" width="120" height="60" as="geometry" />
        </mxCell>
        <mxCell id="1dfUMYbcFIkg1IFHl4_v-10" value="物理机" style="shape=process;whiteSpace=wrap;html=1;backgroundOutline=1;" parent="1" vertex="1">
          <mxGeometry x="350" y="460" width="120" height="60" as="geometry" />
        </mxCell>
        <mxCell id="1dfUMYbcFIkg1IFHl4_v-11" value="物理机" style="shape=process;whiteSpace=wrap;html=1;backgroundOutline=1;" parent="1" vertex="1">
          <mxGeometry x="350" y="310" width="120" height="60" as="geometry" />
        </mxCell>
        <mxCell id="1dfUMYbcFIkg1IFHl4_v-12" value="分区二" style="text;html=1;strokeColor=none;fillColor=none;align=center;verticalAlign=middle;whiteSpace=wrap;rounded=0;" parent="1" vertex="1">
          <mxGeometry x="385" y="270" width="65" height="30" as="geometry" />
        </mxCell>
        <mxCell id="1dfUMYbcFIkg1IFHl4_v-14" value="自动异地同步" style="text;html=1;strokeColor=none;fillColor=none;align=center;verticalAlign=middle;whiteSpace=wrap;rounded=0;" parent="1" vertex="1">
          <mxGeometry x="240" y="650" width="110" height="30" as="geometry" />
        </mxCell>
        <mxCell id="1dfUMYbcFIkg1IFHl4_v-22" style="edgeStyle=orthogonalEdgeStyle;rounded=0;orthogonalLoop=1;jettySize=auto;html=1;exitX=0;exitY=0.25;exitDx=0;exitDy=0;entryX=1;entryY=0.25;entryDx=0;entryDy=0;" parent="1" source="1dfUMYbcFIkg1IFHl4_v-16" target="1dfUMYbcFIkg1IFHl4_v-8" edge="1">
          <mxGeometry relative="1" as="geometry" />
        </mxCell>
        <mxCell id="1dfUMYbcFIkg1IFHl4_v-16" value="" style="rounded=0;whiteSpace=wrap;html=1;" parent="1" vertex="1">
          <mxGeometry x="640" y="305" width="120" height="260" as="geometry" />
        </mxCell>
        <mxCell id="1dfUMYbcFIkg1IFHl4_v-17" value="客户集群" style="text;html=1;strokeColor=none;fillColor=none;align=center;verticalAlign=middle;whiteSpace=wrap;rounded=0;" parent="1" vertex="1">
          <mxGeometry x="650" y="315" width="90" height="30" as="geometry" />
        </mxCell>
        <mxCell id="1dfUMYbcFIkg1IFHl4_v-18" value="VM1" style="rounded=1;whiteSpace=wrap;html=1;" parent="1" vertex="1">
          <mxGeometry x="655" y="375" width="90" height="50" as="geometry" />
        </mxCell>
        <mxCell id="1dfUMYbcFIkg1IFHl4_v-19" value="VM2" style="rounded=1;whiteSpace=wrap;html=1;" parent="1" vertex="1">
          <mxGeometry x="655" y="435" width="90" height="50" as="geometry" />
        </mxCell>
        <mxCell id="1dfUMYbcFIkg1IFHl4_v-21" style="edgeStyle=orthogonalEdgeStyle;rounded=0;orthogonalLoop=1;jettySize=auto;html=1;exitX=0;exitY=0.5;exitDx=0;exitDy=0;entryX=1;entryY=0.5;entryDx=0;entryDy=0;" parent="1" source="1dfUMYbcFIkg1IFHl4_v-20" target="1dfUMYbcFIkg1IFHl4_v-13" edge="1">
          <mxGeometry relative="1" as="geometry" />
        </mxCell>
        <mxCell id="1dfUMYbcFIkg1IFHl4_v-20" value="SaaS" style="shape=parallelogram;perimeter=parallelogramPerimeter;whiteSpace=wrap;html=1;fixedSize=1;" parent="1" vertex="1">
          <mxGeometry x="652.5" y="505" width="95" height="40" as="geometry" />
        </mxCell>
        <mxCell id="1dfUMYbcFIkg1IFHl4_v-24" value="云厂商资产" style="text;html=1;strokeColor=none;fillColor=none;align=center;verticalAlign=middle;whiteSpace=wrap;rounded=0;" parent="1" vertex="1">
          <mxGeometry x="280" y="210" width="90" height="30" as="geometry" />
        </mxCell>
        <mxCell id="1dfUMYbcFIkg1IFHl4_v-25" value="" style="rounded=1;whiteSpace=wrap;html=1;" parent="1" vertex="1">
          <mxGeometry x="135" y="1090" width="350" height="160" as="geometry" />
        </mxCell>
        <mxCell id="1dfUMYbcFIkg1IFHl4_v-26" value="文件存储" style="shape=cube;whiteSpace=wrap;html=1;boundedLbl=1;backgroundOutline=1;darkOpacity=0.05;darkOpacity2=0.1;" parent="1" vertex="1">
          <mxGeometry x="170" y="1135" width="120" height="80" as="geometry" />
        </mxCell>
        <mxCell id="1dfUMYbcFIkg1IFHl4_v-27" value="数据库" style="shape=cylinder3;whiteSpace=wrap;html=1;boundedLbl=1;backgroundOutline=1;size=15;" parent="1" vertex="1">
          <mxGeometry x="330" y="1130" width="120" height="90" as="geometry" />
        </mxCell>
        <mxCell id="1dfUMYbcFIkg1IFHl4_v-28" value="提供可靠性保护" style="text;html=1;strokeColor=none;fillColor=none;align=center;verticalAlign=middle;whiteSpace=wrap;rounded=0;" parent="1" vertex="1">
          <mxGeometry x="275" y="1220" width="110" height="30" as="geometry" />
        </mxCell>
        <mxCell id="1dfUMYbcFIkg1IFHl4_v-29" value="" style="rounded=0;whiteSpace=wrap;html=1;" parent="1" vertex="1">
          <mxGeometry x="80" y="790" width="170" height="270" as="geometry" />
        </mxCell>
        <mxCell id="1dfUMYbcFIkg1IFHl4_v-30" value="物理机" style="shape=process;whiteSpace=wrap;html=1;backgroundOutline=1;" parent="1" vertex="1">
          <mxGeometry x="100" y="910" width="120" height="60" as="geometry" />
        </mxCell>
        <mxCell id="1dfUMYbcFIkg1IFHl4_v-31" value="物理机" style="shape=process;whiteSpace=wrap;html=1;backgroundOutline=1;" parent="1" vertex="1">
          <mxGeometry x="100" y="990" width="120" height="60" as="geometry" />
        </mxCell>
        <mxCell id="1dfUMYbcFIkg1IFHl4_v-32" value="物理机" style="shape=process;whiteSpace=wrap;html=1;backgroundOutline=1;" parent="1" vertex="1">
          <mxGeometry x="100" y="840" width="120" height="60" as="geometry" />
        </mxCell>
        <mxCell id="1dfUMYbcFIkg1IFHl4_v-33" value="客户一资产" style="text;html=1;strokeColor=none;fillColor=none;align=center;verticalAlign=middle;whiteSpace=wrap;rounded=0;" parent="1" vertex="1">
          <mxGeometry x="112.5" y="800" width="95" height="30" as="geometry" />
        </mxCell>
        <mxCell id="1dfUMYbcFIkg1IFHl4_v-34" value="" style="rounded=0;whiteSpace=wrap;html=1;" parent="1" vertex="1">
          <mxGeometry x="332.5" y="740" width="170" height="270" as="geometry" />
        </mxCell>
        <mxCell id="1dfUMYbcFIkg1IFHl4_v-35" value="物理机" style="shape=process;whiteSpace=wrap;html=1;backgroundOutline=1;" parent="1" vertex="1">
          <mxGeometry x="352.5" y="860" width="120" height="60" as="geometry" />
        </mxCell>
        <mxCell id="1dfUMYbcFIkg1IFHl4_v-36" value="物理机" style="shape=process;whiteSpace=wrap;html=1;backgroundOutline=1;" parent="1" vertex="1">
          <mxGeometry x="352.5" y="790" width="120" height="60" as="geometry" />
        </mxCell>
        <mxCell id="1dfUMYbcFIkg1IFHl4_v-37" value="客户二资产" style="text;html=1;strokeColor=none;fillColor=none;align=center;verticalAlign=middle;whiteSpace=wrap;rounded=0;" parent="1" vertex="1">
          <mxGeometry x="362.5" y="750" width="95" height="30" as="geometry" />
        </mxCell>
        <mxCell id="1dfUMYbcFIkg1IFHl4_v-38" value="" style="rounded=0;whiteSpace=wrap;html=1;" parent="1" vertex="1">
          <mxGeometry x="580" y="800" width="120" height="260" as="geometry" />
        </mxCell>
        <mxCell id="1dfUMYbcFIkg1IFHl4_v-39" value="客户二集群" style="text;html=1;strokeColor=none;fillColor=none;align=center;verticalAlign=middle;whiteSpace=wrap;rounded=0;" parent="1" vertex="1">
          <mxGeometry x="590" y="810" width="90" height="30" as="geometry" />
        </mxCell>
        <mxCell id="1dfUMYbcFIkg1IFHl4_v-43" style="edgeStyle=orthogonalEdgeStyle;rounded=0;orthogonalLoop=1;jettySize=auto;html=1;exitX=0;exitY=0.5;exitDx=0;exitDy=0;entryX=1;entryY=0.5;entryDx=0;entryDy=0;" parent="1" source="1dfUMYbcFIkg1IFHl4_v-40" target="1dfUMYbcFIkg1IFHl4_v-36" edge="1">
          <mxGeometry relative="1" as="geometry" />
        </mxCell>
        <mxCell id="1dfUMYbcFIkg1IFHl4_v-40" value="VM1" style="rounded=1;whiteSpace=wrap;html=1;" parent="1" vertex="1">
          <mxGeometry x="595" y="870" width="90" height="50" as="geometry" />
        </mxCell>
        <mxCell id="1dfUMYbcFIkg1IFHl4_v-44" style="edgeStyle=orthogonalEdgeStyle;rounded=0;orthogonalLoop=1;jettySize=auto;html=1;entryX=1;entryY=0.5;entryDx=0;entryDy=0;" parent="1" source="1dfUMYbcFIkg1IFHl4_v-41" target="1dfUMYbcFIkg1IFHl4_v-31" edge="1">
          <mxGeometry relative="1" as="geometry" />
        </mxCell>
        <mxCell id="1dfUMYbcFIkg1IFHl4_v-41" value="VM2" style="rounded=1;whiteSpace=wrap;html=1;" parent="1" vertex="1">
          <mxGeometry x="595" y="930" width="90" height="50" as="geometry" />
        </mxCell>
        <mxCell id="1dfUMYbcFIkg1IFHl4_v-45" style="edgeStyle=orthogonalEdgeStyle;rounded=0;orthogonalLoop=1;jettySize=auto;html=1;exitX=0;exitY=0.5;exitDx=0;exitDy=0;entryX=1;entryY=0.5;entryDx=0;entryDy=0;" parent="1" source="1dfUMYbcFIkg1IFHl4_v-42" target="1dfUMYbcFIkg1IFHl4_v-35" edge="1">
          <mxGeometry relative="1" as="geometry">
            <Array as="points">
              <mxPoint x="533" y="1020" />
              <mxPoint x="533" y="930" />
              <mxPoint x="490" y="930" />
              <mxPoint x="490" y="890" />
            </Array>
          </mxGeometry>
        </mxCell>
        <mxCell id="1dfUMYbcFIkg1IFHl4_v-46" style="edgeStyle=orthogonalEdgeStyle;rounded=0;orthogonalLoop=1;jettySize=auto;html=1;exitX=0.25;exitY=1;exitDx=0;exitDy=0;entryX=1;entryY=0.5;entryDx=0;entryDy=0;" parent="1" source="1dfUMYbcFIkg1IFHl4_v-42" target="1dfUMYbcFIkg1IFHl4_v-25" edge="1">
          <mxGeometry relative="1" as="geometry" />
        </mxCell>
        <mxCell id="1dfUMYbcFIkg1IFHl4_v-42" value="SaaS" style="shape=parallelogram;perimeter=parallelogramPerimeter;whiteSpace=wrap;html=1;fixedSize=1;" parent="1" vertex="1">
          <mxGeometry x="592.5" y="1000" width="95" height="40" as="geometry" />
        </mxCell>
        <mxCell id="1dfUMYbcFIkg1IFHl4_v-47" value="云厂商资产" style="text;html=1;strokeColor=none;fillColor=none;align=center;verticalAlign=middle;whiteSpace=wrap;rounded=0;" parent="1" vertex="1">
          <mxGeometry x="272.5" y="1100" width="90" height="30" as="geometry" />
        </mxCell>
      </root>
    </mxGraphModel>
  </diagram>
</mxfile>
